<svg aria-hidden="true" style="position:absolute;width:0;height:0" xmlns="http://www.w3.org/2000/svg" overflow="hidden"><defs><symbol id="icon-close-black-18dp-2-1" viewBox="0 0 32 32"><path d="M26.667 7.303l-1.97-1.97-7.808 7.808-7.808-7.808-1.97 1.97 7.808 7.808-7.808 7.808 1.97 1.97 7.808-7.808 7.808 7.808 1.97-1.97-7.808-7.808 7.808-7.808z"/></symbol><symbol id="icon-barcode" viewBox="0 0 32 32"><path d="M0 4h4v20H0zm6 0h2v20H6zm4 0h2v20h-2zm6 0h2v20h-2zm8 0h2v20h-2zm6 0h2v20h-2zM20 4h1v20h-1zm-6 0h1v20h-1zm13 0h1v20h-1zM0 26h2v2H0zm6 0h2v2H6zm4 0h2v2h-2zm10 0h2v2h-2zm10 0h2v2h-2zm-6 0h4v2h-4zm-10 0h4v2h-4z"/></symbol><symbol id="icon-qrcode" viewBox="0 0 32 32"><path d="M10 2H2v8h8V2zm2-2v12H0V0h12zM4 4h4v4H4zm26-2h-8v8h8V2zm2-2v12H20V0h12zm-8 4h4v4h-4zM10 22H2v8h8v-8zm2-2v12H0V20h12zm-8 4h4v4H4zM14 0h2v2h-2zm2 2h2v2h-2zm-2 2h2v2h-2zm2 2h2v2h-2zm-2 2h2v2h-2zm2 2h2v2h-2zm-2 2h2v2h-2zm0 4h2v2h-2zm2 2h2v2h-2zm-2 2h2v2h-2zm2 2h2v2h-2zm-2 2h2v2h-2zm2 2h2v2h-2zm-2 2h2v2h-2zm2 2h2v2h-2zm14-14h2v2h-2zM2 16h2v2H2zm2-2h2v2H4zm-4 0h2v2H0zm8 0h2v2H8zm2 2h2v2h-2zm2-2h2v2h-2zm6 2h2v2h-2zm2-2h2v2h-2zm2 2h2v2h-2zm2-2h2v2h-2zm2 2h2v2h-2zm2-2h2v2h-2zm2 6h2v2h-2zm-12 0h2v2h-2zm2-2h2v2h-2zm2 2h2v2h-2zm4 0h2v2h-2zm2-2h2v2h-2zm2 6h2v2h-2zm-12 0h2v2h-2zm2-2h2v2h-2zm4 0h2v2h-2zm2 2h2v2h-2zm2-2h2v2h-2zm2 6h2v2h-2zm-10-2h2v2h-2zm2 2h2v2h-2zm2-2h2v2h-2zm2 2h2v2h-2zm-6 2h2v2h-2zm4 0h2v2h-2zm4 0h2v2h-2z"/></symbol><symbol id="icon-ticket" viewBox="0 0 32 32"><path d="M18 10l4 4-8 8-4-4zm13.298-.703L29.001 7l-1 1a2.829 2.829 0 11-4-4.001l1-1L22.704.702a2.415 2.415 0 00-3.405 0L.704 19.297a2.415 2.415 0 000 3.405l2.297 2.297L4 24a2.828 2.828 0 114 3.999l-1 1 2.297 2.297a2.415 2.415 0 003.405 0l18.595-18.595a2.417 2.417 0 000-3.406zM14 26l-8-8L18 6l8 8-12 12z"/></symbol><symbol id="icon-cart" viewBox="0 0 32 32"><path d="M12 29a3 3 0 11-6 0 3 3 0 016 0zM32 29a3 3 0 11-6 0 3 3 0 016 0zM32 16V4H8a2 2 0 00-2-2H0v2h4l1.502 12.877A4 4 0 008 24h24v-2H8a2 2 0 01-2-2v-.02L32 16z"/></symbol><symbol id="icon-coin-dollar" viewBox="0 0 32 32"><path d="M15 2C6.716 2 0 8.716 0 17s6.716 15 15 15c8.284 0 15-6.716 15-15S23.284 2 15 2zm0 27C8.373 29 3 23.627 3 17S8.373 5 15 5s12 5.373 12 12-5.373 12-12 12zm1-13v-4h4v-2h-4V8h-2v2h-4v8h4v4h-4v2h4v2h2v-2h4v-8h-4zm-2 0h-2v-4h2v4zm4 6h-2v-4h2v4z"/></symbol></defs></svg>